<?xml version="1.0" encoding="UTF-8"?><svg id="b" xmlns="http://www.w3.org/2000/svg" viewBox="0 0 2232 1971.59"><g id="c"><path d="M483.82,132.71c255.88,192.75,531.15,583.53,632.18,793.23v553.88c0-11.79-4.53,1.53-14.3,30.24-52.73,155.4-258.7,761.91-729.69,277.05-248-255.28-133.19-510.57,318.23-587.64-258.25,44.08-548.58-28.77-628.24-314.4C39.06,802.9,0,296.79,0,228.44,0-113.97,299.19-6.34,483.82,132.71ZM1748.18,132.71c-255.88,192.75-531.15,583.53-632.18,793.23v553.88c0-11.79,4.53,1.53,14.3,30.24,52.73,155.4,258.7,761.91,729.69,277.05,248-255.28,133.19-510.57-318.23-587.64,258.25,44.08,548.58-28.77,628.24-314.4,22.95-82.17,62.01-588.27,62.01-656.63,0-342.4-299.16-234.78-483.82-95.73h0Z"/></g></svg>