<svg width="1200" height="420" viewBox="0 0 1200 420" fill="none" xmlns="http://www.w3.org/2000/svg">
<path d="M1200 0H0V420H1200V0Z" fill="#FC4D50"/>
<path d="M471.746 209.495C470.667 222.382 467.548 235.015 462.507 246.923C457.882 258.014 451.407 268.239 443.356 277.161C435.518 285.709 426.017 292.568 415.437 297.319C404.508 302.281 392.633 304.814 380.63 304.744C365.451 305.151 350.546 300.65 338.129 291.91C326.255 283.33 317.288 271.326 312.427 257.506C307.056 242.027 305.242 225.537 307.119 209.26C308.511 192.302 313.493 175.834 321.734 160.947C329.404 147.081 340.437 135.366 353.819 126.879C367.078 118.492 382.48 114.117 398.168 114.28C413.172 113.899 427.908 118.312 440.232 126.879C452.078 135.382 461.092 147.253 466.102 160.947C471.685 176.4 473.617 192.936 471.746 209.26V209.495ZM438.35 207.816C439.343 198.32 438.301 188.722 435.293 179.661C432.497 171.039 427.271 163.409 420.241 157.688C413.091 151.915 404.13 148.856 394.942 149.054C385.297 149.027 375.89 152.049 368.064 157.688C360.012 163.333 353.479 170.881 349.048 179.661C344.544 188.436 341.761 197.993 340.851 207.816C340.548 213.489 340.548 219.175 340.851 224.849C341.175 230.607 342.411 236.277 344.513 241.648C346.473 246.798 349.142 251.649 352.442 256.061C355.855 260.424 360.284 263.884 365.343 266.141C371.157 268.802 377.496 270.122 383.889 270.004C391.97 270.115 399.946 268.173 407.071 264.36C413.801 260.798 419.566 255.656 423.87 249.376C428.09 243.206 431.479 236.507 433.949 229.452C436.353 222.466 437.887 215.21 438.518 207.849L438.35 207.816ZM651.257 209.294C650.151 222.179 647.021 234.81 641.984 246.721C637.372 257.811 630.907 268.036 622.867 276.959C615.016 285.508 605.505 292.367 594.914 297.117C583.985 302.08 572.11 304.613 560.107 304.542C544.929 304.949 530.023 300.448 517.607 291.708C505.743 283.126 496.786 271.122 491.938 257.304C486.556 241.828 484.73 225.338 486.596 209.059C488.015 192.101 493.008 175.636 501.245 160.745C508.89 146.872 519.915 135.154 533.297 126.678C546.566 118.286 561.979 113.91 577.679 114.079C592.672 113.704 607.394 118.117 619.709 126.678C631.564 135.172 640.58 147.045 645.579 160.745C651.191 176.192 653.134 192.732 651.257 209.059V209.294ZM617.828 207.614C618.831 198.121 617.8 188.523 614.804 179.459C611.999 170.834 606.761 163.203 599.719 157.486C592.584 151.71 583.632 148.651 574.454 148.852C564.807 148.816 555.397 151.839 547.576 157.486C539.515 163.122 532.98 170.673 528.56 179.459C524.043 188.233 521.249 197.79 520.328 207.614C520.043 213.288 520.043 218.973 520.328 224.648C520.62 230.41 521.857 236.085 523.99 241.446C525.95 246.596 528.619 251.447 531.919 255.86C535.323 260.232 539.755 263.695 544.821 265.939C550.623 268.6 556.95 269.92 563.333 269.803C571.424 269.911 579.41 267.969 586.549 264.158C593.279 260.597 599.043 255.455 603.347 249.174C607.579 243.011 610.968 236.311 613.427 229.251C615.846 222.269 617.381 215.011 617.996 207.647L617.828 207.614ZM730.715 148.684L714.622 302.191H678.572L694.665 148.684H657.372L660.732 117.27H771.335L767.975 148.684H730.715ZM815.885 193.705H875.856L883.92 117.27H919.97L900.651 302.056H864.534L872.765 223.002H812.794L804.562 302.056H768.512L787.831 117.27H823.881L815.885 193.705ZM235.892 117.27C253.811 117.27 267.138 121.235 275.873 129.164C284.575 137.126 287.968 149.893 286.154 167.566C285.369 174.802 283.25 181.831 279.905 188.295C276.84 194.499 272.104 199.723 266.231 203.381C272.709 204.53 278.62 207.804 283.029 212.687C287.38 217.432 290.435 223.217 291.899 229.486C293.403 236.095 293.767 242.913 292.974 249.644C291.115 266.981 284.295 280.061 272.513 288.886C260.732 297.711 246.005 302.123 228.333 302.123H151.495L170.814 117.338L235.892 117.27ZM195.978 221.758L190.603 273.263H218.455C222.856 273.263 226.619 273.263 229.71 272.894C233.054 272.616 236.356 271.962 239.554 270.945C242.672 270.04 245.583 268.534 248.122 266.51C250.619 264.36 252.615 261.687 253.968 258.682C255.722 254.925 256.857 250.908 257.327 246.788C257.803 242.814 257.378 238.784 256.084 234.996C255.111 232.157 253.462 229.597 251.28 227.537C248.811 225.593 245.924 224.247 242.847 223.606C239.688 222.78 236.461 222.24 233.204 221.994C230.416 221.994 226.72 221.758 222.151 221.758H195.978ZM203.941 146.231L198.901 194.309H223.562C232.7 194.309 239.521 192.529 243.989 189.034C248.458 185.54 251.213 179.19 252.187 170.018C253.161 160.846 251.616 155 247.517 151.506C243.418 148.012 237.169 146.231 228.837 146.231H203.941Z" fill="white"/>
<path d="M1038.47 235.399V227.033L1017.6 193.671H1010.38L999.025 220.986L987.803 197.467H981.352L962.403 242.219V199.752H949.502V203.481H939.624V216.584H949.502V254.348C949.502 255.961 950.143 257.507 951.283 258.648C952.423 259.788 953.97 260.429 955.583 260.429H962V302.056H975.17V283.208C975.354 278.027 977.575 273.128 981.349 269.574C985.123 266.02 990.146 264.098 995.329 264.225C1013.61 264.225 1028.42 278.068 1028.42 295.135V302.056H1038.47V264.696H1048.31V244.067L1038.47 235.399Z" fill="white"/>
</svg>
