<?xml version="1.0" encoding="utf-8"?>
<!-- Generator: Adobe Illustrator 27.6.1, SVG Export Plug-In . SVG Version: 6.00 Build 0)  -->
<svg version="1.1" id="レイヤー_1" xmlns="http://www.w3.org/2000/svg" xmlns:xlink="http://www.w3.org/1999/xlink" x="0px"
	 y="0px" viewBox="0 0 87.9 95.8" style="enable-background:new 0 0 87.9 95.8;" xml:space="preserve">
<style type="text/css">
	.st0{fill:#FFFFFF;}
</style>
<path class="st0" d="M43.7,0C31.6,0,19.6,1.6,13.4,4.5c0,0-13.4,6.1-13.4,26.9c0,24.8,0,55.9,22.2,61.9c8.5,2.3,15.9,2.8,21.8,2.4
	c10.7-0.6,16-3.9,16-3.9l-0.4-7.9c0,0-6.9,2.4-15.5,2.2c-8.5-0.3-17.5-0.9-18.9-11.6c-0.1-1-0.2-2-0.2-3c18,4.5,33.4,1.9,37.6,1.4
	c11.8-1.4,22.1-8.8,23.4-15.6c2.1-10.7,1.9-26,1.9-26c0-20.8-13.4-26.9-13.4-26.9C67.9,1.4,55.7,0,43.7,0z M30.7,15.9
	c4.1,0.1,8.2,2,10.8,5.9l2.4,4.1l2.4-4.1c5.1-7.9,16.4-7.4,21.8-1.3c5,5.8,3.9,9.5,3.9,35.4l0,0h-9.8V33.4
	c0-10.5-13.4-10.9-13.4,1.5v13h-9.7v-13c0-12.4-13.4-12-13.4-1.5v22.5h-9.8c0-25.9-1.1-29.7,3.9-35.4C22.4,17.4,26.6,15.8,30.7,15.9
	z"/>
</svg>
