<?xml version="1.0" encoding="UTF-8"?><svg id="b" xmlns="http://www.w3.org/2000/svg" viewBox="0 0 531.13 171.8"><defs><style>.d{fill:#005aac;}.e{fill:#7d7d7d;}.f{fill:#1f7acc;}.g{fill:#393c41;}</style></defs><g id="c"><path d="m337.47,65.46c0,8.02-6.88,11.46-13.75,11.46s-14.32-4.01-14.32-11.46V3.01h-22.34v63.6c0,20.05,17.76,32.09,36.67,32.09s36.67-12.03,36.67-32.09V3.01h-22.92v62.45Z"/><path d="m38.96,39.68c-8.59-1.15-15.47-2.29-14.9-9.17.57-12.03,25.78-12.6,25.78,0h22.92C73.34-10.17.58-10.17,1.15,30.51c0,20.05,14.32,26.93,33.8,28.65,9.17,1.15,17.19,2.29,17.19,8.59,0,11.46-29.22,10.89-29.22-1.15H0c-.57,41.25,75.63,40.68,75.63,1.15,0-22.92-18.33-26.36-36.67-28.07Z"/><path d="m146.1,65.46c0,8.02-6.88,11.46-13.75,11.46s-14.32-4.01-14.32-11.46V3.01h-22.34v63.6c0,20.05,17.76,32.09,36.67,32.09s36.67-12.03,36.67-32.09V3.01h-22.92v62.45Z"/><path d="m263.56,3.01h-69.9v21.2h34.38l-37.81,71.05h73.91v-21.2h-38.39L263.56,3.01Z"/><path d="m425.7,3.01h-40.68v92.24h23.49v-26.93h12.03l16.04,26.93h28.07l-19.48-32.66c23.49-16.04,16.62-59.59-19.48-59.59Zm0,44.12h-16.62v-22.92h16.62c13.18,0,12.6,22.92,0,22.92Z"/><path d="m531.13,23.63V3.01h-45.84v20.63h11.46v50.99h-11.46v20.63h45.84v-20.63h-11.46V23.63h11.46Z"/><path class="d" d="m192.23,160.22h2.52c.11,0,.29-.06.34-.17l10.31-16.9,5.61,19.31c.06.11.17.23.29.23h10.83c.11,0,.17-.11.17-.23l-11.4-36.15c-.06-.11-.17-.23-.29-.23h-4.07c-.11,0-.29.11-.34.17l-13.92,21.54-13.92-21.54c-.06-.11-.23-.17-.34-.17h-4.07c-.11,0-.29.11-.29.23l-11.4,36.15c-.06.11.06.23.17.23h10.83c.11,0,.23-.11.29-.23l5.61-19.31,10.31,16.9c.06.11.23.17.34.17h2.41Z"/><path class="d" d="m162.66,142.23c0-.11-.11-.17-.23-.17h-30.82c-1.6,0-2.98,1.32-2.98,2.98s1.32,2.98,2.98,2.98h18.33c-2.18,5.79-9.57,9.97-18.33,9.97-10.48,0-18.96-6.07-18.96-13.52s8.48-13.58,18.96-13.58c5.73,0,10.83,1.83,14.32,4.7l.06.06h12.72c.11,0,.23-.11.23-.23,0-.06,0-.11-.06-.11-5.39-5.73-15.53-9.57-27.27-9.57-17.25,0-31.28,8.42-31.28,18.79s13.98,18.79,31.28,18.79,31.28-8.42,31.28-18.79c0-.86-.06-1.6-.23-2.29"/><path class="d" d="m252.79,125.62c-17.25,0-31.28,8.42-31.28,18.79s13.98,18.79,31.28,18.79,31.28-8.42,31.28-18.79-13.98-18.79-31.28-18.79m0,32.31c-10.48,0-18.96-6.07-18.96-13.52s8.48-13.58,18.96-13.58,18.96,6.07,18.96,13.58c.06,7.45-8.48,13.52-18.96,13.52"/><path class="g" d="m415.85,162.12c0,.34.23.57.52.57h6.53c.34,0,.63-.29.63-.57l1.15-14.95c0-.34-.23-.57-.52-.57h-6.53c-.34,0-.63.29-.63.57l-1.15,14.95Z"/><path class="g" d="m453.61,146.53c-.34,0-.57.29-.52.57l1.15,14.95c0,.34.29.57.63.57h6.53c.34,0,.92-.29.92-.57l-1.49-14.95c0-.34-.29-.57-.63-.57h-6.59Z"/><path class="g" d="m460.6,139.14c.34,0,.57-.29.57-.57v-6.3c0-.34-.29-.57-.57-.57h-17.47c-.34,0-.57-.29-.57-.57v-4.41c0-.34-.29-.57-.57-.57h-6.3c-.34,0-.57.29-.57.57v4.41c0,.34-.29.57-.57.57h-17.36c-.34,0-.57.29-.57.57v6.3c0,.34.29.57.57.57h17.36c.34,0,.57.29.57.57v22.34c0,.34.29.57.57.57h6.3c.34,0,.57-.29.57-.57v-22.34c0-.34.29-.57.57-.57h17.47Z"/><path class="f" d="m464.78,134.79c0,.34.29.57.57.57h4.41c.34,0,.57-.29.57-.57v-8.59c0-.34-.29-.57-.57-.57h-4.41c-.34,0-.57.29-.57.57v8.59Z"/><path class="f" d="m473.37,134.79c0,.34.29.57.57.57h4.41c.34,0,.57-.29.57-.57v-8.59c0-.34-.29-.57-.57-.57h-4.41c-.34,0-.57.29-.57.57v8.59Z"/><path class="g" d="m293.75,151.69c-.17.17-.17.4,0,.57l4.7,4.7c.17.17.4.17.57,0l17.07-17.07c.17-.17.4-.17.57,0l22.29,22.34c.17.17.4.17.57,0l4.7-4.7c.17-.17.17-.4,0-.57l-27.56-27.62c-.17-.17-.4-.17-.57,0l-22.34,22.34Z"/><path class="f" d="m339.47,136.62c3.04,0,5.5-2.46,5.5-5.5s-2.46-5.5-5.5-5.5-5.5,2.46-5.5,5.5,2.46,5.5,5.5,5.5"/><path class="g" d="m356.66,162.29c0,.23.11.4.34.4h7.22c.23,0,.4-.17.46-.4l3.9-32.54c0-.23-.11-.4-.34-.4h-7.22c-.23,0-.4.17-.46.4l-3.9,32.54Z"/><path class="g" d="m386,129.34c-.23,0-.34.17-.34.4l3.95,32.54c0,.23.23.4.46.4h7.22c.23,0,.34-.17.34-.4l-3.95-32.54c0-.23-.23-.4-.46-.4h-7.22Z"/><path class="f" d="m404.27,125.62c-3.04,0-5.5,2.46-5.5,5.5s2.46,5.5,5.5,5.5,5.5-2.46,5.5-5.5-2.46-5.5-5.5-5.5"/><path class="e" d="m50.37,132.95v13.18h.11c.23-.29.52-.63.92-.97.34-.34.8-.63,1.32-.92s1.09-.52,1.78-.74c.69-.17,1.43-.29,2.29-.29,1.32,0,2.58.23,3.67.74,1.15.52,2.06,1.2,2.86,2.06s1.43,1.95,1.89,3.15.69,2.46.69,3.84-.23,2.69-.63,3.9c-.46,1.2-1.03,2.29-1.83,3.15-.8.92-1.78,1.6-2.86,2.12-1.15.52-2.41.8-3.84.8-1.32,0-2.58-.29-3.72-.86s-2.06-1.43-2.69-2.52h-.17v2.81h-4.47v-29.51h4.7v.06Zm10.77,20.11c0-.74-.11-1.43-.34-2.18-.23-.69-.57-1.38-.97-1.95-.46-.57-1.03-1.03-1.66-1.38-.69-.34-1.49-.52-2.41-.52-.86,0-1.6.17-2.29.57-.69.34-1.26.86-1.72,1.43s-.86,1.2-1.09,1.95-.34,1.43-.34,2.18.11,1.43.34,2.18c.23.69.63,1.38,1.09,1.95s1.09,1.03,1.72,1.38c.69.34,1.43.52,2.29.52.92,0,1.72-.17,2.41-.57.69-.34,1.26-.86,1.66-1.43.46-.57.74-1.2.97-1.95s.34-1.49.34-2.18"/><path class="e" d="m67.9,143.72h5.21l5.21,13.64h.06l4.64-13.64h4.87l-8.88,22.75c-.34.86-.69,1.6-1.09,2.29s-.86,1.2-1.43,1.66-1.2.8-1.95,1.03-1.6.34-2.69.34c-.4,0-.8,0-1.2-.06s-.8-.11-1.2-.23l.4-4.07c.29.11.63.17.92.23s.57.06.86.06c.52,0,.92-.06,1.26-.17s.63-.29.86-.57c.23-.23.46-.57.63-.92s.4-.8.57-1.32l.92-2.41-7.96-18.62Z"/></g></svg>