<?xml version="1.0" encoding="utf-8"?>
<!-- Generator: Adobe Illustrator 27.5.0, SVG Export Plug-In . SVG Version: 6.00 Build 0)  -->
<svg version="1.1" id="b" xmlns="http://www.w3.org/2000/svg" xmlns:xlink="http://www.w3.org/1999/xlink" x="0px" y="0px"
	 viewBox="0 0 531.1 171.8" style="enable-background:new 0 0 531.1 171.8;" xml:space="preserve">
<style type="text/css">
	.st0{fill:#FFFFFF;}
</style>
<g id="c">
	<path class="st0" d="M337.5,65.5c0,8-6.9,11.5-13.8,11.5s-14.3-4-14.3-11.5V3h-22.3v63.6c0,20.1,17.8,32.1,36.7,32.1
		s36.7-12,36.7-32.1V3h-22.9L337.5,65.5L337.5,65.5z"/>
	<path class="st0" d="M39,39.7c-8.6-1.2-15.5-2.3-14.9-9.2c0.6-12,25.8-12.6,25.8,0h22.9c0.6-40.7-72.2-40.7-71.6,0
		c0,20,14.3,26.9,33.8,28.6c9.2,1.2,17.2,2.3,17.2,8.6c0,11.5-29.2,10.9-29.2-1.2H0c-0.6,41.2,75.6,40.7,75.6,1.2
		C75.6,44.8,57.3,41.4,39,39.7z"/>
	<path class="st0" d="M146.1,65.5c0,8-6.9,11.5-13.8,11.5s-14.3-4-14.3-11.5V3H95.7v63.6c0,20.1,17.8,32.1,36.7,32.1
		s36.7-12,36.7-32.1V3h-22.9L146.1,65.5L146.1,65.5z"/>
	<path class="st0" d="M263.6,3h-69.9v21.2H228l-37.8,71.1h73.9V74.1h-38.4L263.6,3z"/>
	<path class="st0" d="M425.7,3H385v92.2h23.5V68.3h12l16,26.9h28.1l-19.5-32.7C468.7,46.5,461.8,3,425.7,3L425.7,3z M425.7,47.1
		h-16.6V24.2h16.6C438.9,24.2,438.3,47.1,425.7,47.1z"/>
	<path class="st0" d="M531.1,23.6V3h-45.8v20.6h11.5v51h-11.5v20.6h45.8V74.6h-11.5v-51H531.1z"/>
	<path class="st0" d="M192.2,160.2h2.5c0.1,0,0.3-0.1,0.3-0.2l10.3-16.9l5.6,19.3c0.1,0.1,0.2,0.2,0.3,0.2h10.8
		c0.1,0,0.2-0.1,0.2-0.2l-11.4-36.2c-0.1-0.1-0.2-0.2-0.3-0.2h-4.1c-0.1,0-0.3,0.1-0.3,0.2l-13.9,21.5l-13.9-21.5
		c-0.1-0.1-0.2-0.2-0.3-0.2h-4.1c-0.1,0-0.3,0.1-0.3,0.2l-11.4,36.2c-0.1,0.1,0.1,0.2,0.2,0.2h10.8c0.1,0,0.2-0.1,0.3-0.2l5.6-19.3
		l10.3,16.9c0.1,0.1,0.2,0.2,0.3,0.2L192.2,160.2L192.2,160.2z"/>
	<path class="st0" d="M162.7,142.2c0-0.1-0.1-0.2-0.2-0.2h-30.8c-1.6,0-3,1.3-3,3s1.3,3,3,3h18.3c-2.2,5.8-9.6,10-18.3,10
		c-10.5,0-19-6.1-19-13.5s8.5-13.6,19-13.6c5.7,0,10.8,1.8,14.3,4.7l0.1,0.1h12.7c0.1,0,0.2-0.1,0.2-0.2c0-0.1,0-0.1-0.1-0.1
		c-5.4-5.7-15.5-9.6-27.3-9.6c-17.2,0-31.3,8.4-31.3,18.8s14,18.8,31.3,18.8s31.3-8.4,31.3-18.8
		C162.9,143.7,162.8,142.9,162.7,142.2"/>
	<path class="st0" d="M252.8,125.6c-17.2,0-31.3,8.4-31.3,18.8s14,18.8,31.3,18.8s31.3-8.4,31.3-18.8S270.1,125.6,252.8,125.6
		 M252.8,157.9c-10.5,0-19-6.1-19-13.5s8.5-13.6,19-13.6c10.5,0,19,6.1,19,13.6C271.8,151.9,263.3,157.9,252.8,157.9"/>
	<path class="st0" d="M415.9,162.1c0,0.3,0.2,0.6,0.5,0.6h6.5c0.3,0,0.6-0.3,0.6-0.6l1.1-14.9c0-0.3-0.2-0.6-0.5-0.6h-6.5
		c-0.3,0-0.6,0.3-0.6,0.6L415.9,162.1z"/>
	<path class="st0" d="M453.6,146.5c-0.3,0-0.6,0.3-0.5,0.6l1.1,14.9c0,0.3,0.3,0.6,0.6,0.6h6.5c0.3,0,0.9-0.3,0.9-0.6l-1.5-14.9
		c0-0.3-0.3-0.6-0.6-0.6H453.6L453.6,146.5z"/>
	<path class="st0" d="M460.6,139.1c0.3,0,0.6-0.3,0.6-0.6v-6.3c0-0.3-0.3-0.6-0.6-0.6h-17.5c-0.3,0-0.6-0.3-0.6-0.6v-4.4
		c0-0.3-0.3-0.6-0.6-0.6h-6.3c-0.3,0-0.6,0.3-0.6,0.6v4.4c0,0.3-0.3,0.6-0.6,0.6h-17.4c-0.3,0-0.6,0.3-0.6,0.6v6.3
		c0,0.3,0.3,0.6,0.6,0.6h17.4c0.3,0,0.6,0.3,0.6,0.6v22.3c0,0.3,0.3,0.6,0.6,0.6h6.3c0.3,0,0.6-0.3,0.6-0.6v-22.3
		c0-0.3,0.3-0.6,0.6-0.6H460.6z"/>
	<path class="st0" d="M464.8,134.8c0,0.3,0.3,0.6,0.6,0.6h4.4c0.3,0,0.6-0.3,0.6-0.6v-8.6c0-0.3-0.3-0.6-0.6-0.6h-4.4
		c-0.3,0-0.6,0.3-0.6,0.6V134.8z"/>
	<path class="st0" d="M473.4,134.8c0,0.3,0.3,0.6,0.6,0.6h4.4c0.3,0,0.6-0.3,0.6-0.6v-8.6c0-0.3-0.3-0.6-0.6-0.6h-4.4
		c-0.3,0-0.6,0.3-0.6,0.6V134.8z"/>
	<path class="st0" d="M293.8,151.7c-0.2,0.2-0.2,0.4,0,0.6l4.7,4.7c0.2,0.2,0.4,0.2,0.6,0l17.1-17.1c0.2-0.2,0.4-0.2,0.6,0
		l22.3,22.3c0.2,0.2,0.4,0.2,0.6,0l4.7-4.7c0.2-0.2,0.2-0.4,0-0.6l-27.6-27.6c-0.2-0.2-0.4-0.2-0.6,0L293.8,151.7L293.8,151.7z"/>
	<path class="st0" d="M339.5,136.6c3,0,5.5-2.5,5.5-5.5s-2.5-5.5-5.5-5.5s-5.5,2.5-5.5,5.5S336.4,136.6,339.5,136.6"/>
	<path class="st0" d="M356.7,162.3c0,0.2,0.1,0.4,0.3,0.4h7.2c0.2,0,0.4-0.2,0.5-0.4l3.9-32.5c0-0.2-0.1-0.4-0.3-0.4H361
		c-0.2,0-0.4,0.2-0.5,0.4L356.7,162.3L356.7,162.3z"/>
	<path class="st0" d="M386,129.3c-0.2,0-0.3,0.2-0.3,0.4l4,32.5c0,0.2,0.2,0.4,0.5,0.4h7.2c0.2,0,0.3-0.2,0.3-0.4l-4-32.5
		c0-0.2-0.2-0.4-0.5-0.4H386z"/>
	<path class="st0" d="M404.3,125.6c-3,0-5.5,2.5-5.5,5.5s2.5,5.5,5.5,5.5s5.5-2.5,5.5-5.5S407.3,125.6,404.3,125.6"/>
	<path class="st0" d="M50.4,132.9v13.2h0.1c0.2-0.3,0.5-0.6,0.9-1c0.3-0.3,0.8-0.6,1.3-0.9s1.1-0.5,1.8-0.7c0.7-0.2,1.4-0.3,2.3-0.3
		c1.3,0,2.6,0.2,3.7,0.7c1.2,0.5,2.1,1.2,2.9,2.1c0.8,0.9,1.4,1.9,1.9,3.1s0.7,2.5,0.7,3.8s-0.2,2.7-0.6,3.9c-0.5,1.2-1,2.3-1.8,3.1
		c-0.8,0.9-1.8,1.6-2.9,2.1c-1.2,0.5-2.4,0.8-3.8,0.8c-1.3,0-2.6-0.3-3.7-0.9s-2.1-1.4-2.7-2.5h-0.2v2.8h-4.5v-29.5L50.4,132.9
		L50.4,132.9L50.4,132.9z M61.1,153.1c0-0.7-0.1-1.4-0.3-2.2c-0.2-0.7-0.6-1.4-1-1.9c-0.5-0.6-1-1-1.7-1.4c-0.7-0.3-1.5-0.5-2.4-0.5
		c-0.9,0-1.6,0.2-2.3,0.6c-0.7,0.3-1.3,0.9-1.7,1.4s-0.9,1.2-1.1,1.9s-0.3,1.4-0.3,2.2s0.1,1.4,0.3,2.2c0.2,0.7,0.6,1.4,1.1,1.9
		s1.1,1,1.7,1.4c0.7,0.3,1.4,0.5,2.3,0.5c0.9,0,1.7-0.2,2.4-0.6c0.7-0.3,1.3-0.9,1.7-1.4c0.5-0.6,0.7-1.2,1-1.9
		S61.1,153.7,61.1,153.1"/>
	<path class="st0" d="M67.9,143.7h5.2l5.2,13.6h0.1l4.6-13.6h4.9L79,166.5c-0.3,0.9-0.7,1.6-1.1,2.3s-0.9,1.2-1.4,1.7
		s-1.2,0.8-1.9,1s-1.6,0.3-2.7,0.3c-0.4,0-0.8,0-1.2-0.1s-0.8-0.1-1.2-0.2l0.4-4.1c0.3,0.1,0.6,0.2,0.9,0.2s0.6,0.1,0.9,0.1
		c0.5,0,0.9-0.1,1.3-0.2s0.6-0.3,0.9-0.6c0.2-0.2,0.5-0.6,0.6-0.9s0.4-0.8,0.6-1.3l0.9-2.4L67.9,143.7L67.9,143.7z"/>
</g>
</svg>
